<svg width="164" height="32" viewBox="0 0 164 32" fill="none" xmlns="http://www.w3.org/2000/svg">
<g clip-path="url(#clip0_453_355)">
<path d="M36.4175 9.1434H51.8232V12.8776H40.6333V18.9493H50.4291V22.6872H40.6333V31.9962H36.4175V9.1434Z" fill="#141C36"/>
<path d="M56.4063 30.8444C55.0422 30.0765 53.9629 29.0187 53.1685 27.6673C52.374 26.3197 51.9768 24.814 51.9768 23.154C51.9768 21.4939 52.3703 19.9882 53.1535 18.6406C53.9367 17.293 55.0122 16.2315 56.3763 15.4636C57.7404 14.6957 59.2468 14.3117 60.9032 14.3117C62.5595 14.3117 64.0285 14.6957 65.3814 15.4636C66.7342 16.2315 67.8097 17.2893 68.6042 18.6406C69.3986 19.9882 69.7958 21.4939 69.7958 23.154C69.7958 24.814 69.3986 26.3498 68.6042 27.7012C67.8097 29.0488 66.7304 30.1028 65.3664 30.8594C64.0023 31.6161 62.5146 31.9962 60.9032 31.9962C59.2918 31.9962 57.7741 31.6123 56.41 30.8444H56.4063ZM57.508 26.8129C58.3849 27.7765 59.5166 28.2621 60.9032 28.2621C61.7913 28.2621 62.5858 28.0438 63.2903 27.6071C63.9911 27.1705 64.5457 26.5644 64.9504 25.7852C65.3551 25.006 65.5537 24.1289 65.5537 23.154C65.5537 22.179 65.3514 21.3321 64.9504 20.5529C64.5494 19.7737 63.9948 19.1639 63.2903 18.7159C62.5895 18.268 61.7913 18.0459 60.9032 18.0459C60.015 18.0459 59.1831 18.268 58.4711 18.7159C57.7591 19.1639 57.2007 19.7699 56.796 20.5378C56.395 21.3057 56.1927 22.179 56.1927 23.154C56.1927 24.6296 56.6311 25.8454 57.5118 26.8129H57.508Z" fill="#141C36"/>
<path d="M73.4458 30.0991C72.3103 28.8343 71.7407 27.1516 71.7407 25.055V14.6882H75.8029V24.7124C75.8029 25.7702 76.1177 26.6284 76.7473 27.2796C77.3769 27.9346 78.1975 28.2621 79.2131 28.2621C80.2286 28.2621 81.0456 27.9309 81.6789 27.2646C82.3085 26.6021 82.6233 25.7175 82.6233 24.6183V14.6882H86.6855V31.6274H82.8406V29.6022C82.3872 30.3927 81.7501 30.9874 80.9332 31.394C80.1162 31.8005 79.1719 32 78.0964 32C76.1327 32 74.5813 31.3676 73.4458 30.0991Z" fill="#141C36"/>
<path d="M89.3836 15.0608H93.1948V17.1462C93.6295 16.3595 94.2628 15.7497 95.1022 15.3243C95.9379 14.899 96.8935 14.6882 97.969 14.6882C99.1869 14.6882 100.281 14.9592 101.255 15.4975C102.226 16.0358 102.979 16.7962 103.519 17.7711C104.055 18.746 104.325 19.8565 104.325 21.1025V32H100.262V22.0699C100.262 20.9707 99.9476 20.0861 99.3181 19.4236C98.6885 18.7611 97.8641 18.4261 96.8523 18.4261C95.8405 18.4261 95.0198 18.7573 94.3864 19.4236C93.7569 20.0899 93.4421 20.9707 93.4421 22.0699V32H89.3799V15.0608H89.3836Z" fill="#141C36"/>
<path d="M110.815 30.8293C109.522 30.0501 108.507 28.9886 107.761 27.6372C107.015 26.2896 106.644 24.7952 106.644 23.154C106.644 21.5128 107.015 20.0184 107.761 18.6708C108.507 17.3231 109.526 16.2579 110.83 15.4787C112.131 14.6995 113.57 14.3117 115.14 14.3117C116.215 14.3117 117.197 14.4924 118.085 14.8576C118.973 15.2227 119.719 15.7346 120.319 16.3971V9.1434H124.381V31.6236H120.536V29.7565C119.918 30.483 119.142 31.0401 118.213 31.4241C117.283 31.808 116.271 32 115.173 32C113.562 32 112.108 31.6123 110.819 30.8331L110.815 30.8293ZM111.467 25.7852C111.872 26.5644 112.434 27.1705 113.157 27.6071C113.881 28.0438 114.698 28.2621 115.604 28.2621C116.511 28.2621 117.324 28.0438 118.036 27.6071C118.748 27.1705 119.307 26.5644 119.712 25.7852C120.113 25.006 120.315 24.1289 120.315 23.154C120.315 22.179 120.113 21.302 119.712 20.5228C119.307 19.7436 118.745 19.1375 118.021 18.7009C117.298 18.2642 116.493 18.0459 115.604 18.0459C114.716 18.0459 113.877 18.268 113.157 18.7159C112.434 19.1639 111.872 19.7737 111.467 20.5529C111.066 21.3321 110.864 22.1979 110.864 23.154C110.864 24.1101 111.066 25.006 111.467 25.7852Z" fill="#141C36"/>
<path d="M128.642 30.69C127.6 29.8167 127.075 28.6348 127.075 27.1403C127.075 25.6459 127.559 24.5242 128.533 23.5906C129.504 22.6571 130.961 22.0322 132.903 21.7236L137.924 20.9143V20.3534C137.924 19.6043 137.639 18.9945 137.073 18.5164C136.504 18.0384 135.754 17.8012 134.825 17.8012C133.956 17.8012 133.187 18.0346 132.517 18.5014C131.846 18.9681 131.355 19.5855 131.044 20.3534L127.727 18.7347C128.222 17.406 129.133 16.3369 130.455 15.5276C131.778 14.7183 133.285 14.3117 134.982 14.3117C136.346 14.3117 137.561 14.5677 138.625 15.0759C139.689 15.5841 140.517 16.2993 141.106 17.2253C141.694 18.1475 141.99 19.194 141.99 20.3534V31.6236H138.145V29.8167C136.822 31.2697 135.065 31.9962 132.876 31.9962C131.1 31.9962 129.687 31.5596 128.645 30.69H128.642ZM131.943 28.3713C132.378 28.7138 132.936 28.887 133.618 28.887C134.877 28.887 135.912 28.4879 136.717 27.6899C137.523 26.8919 137.928 25.8981 137.928 24.7162V24.0311L133.682 24.7463C132.876 24.9119 132.277 25.1754 131.883 25.5405C131.49 25.9057 131.295 26.3875 131.295 26.9898C131.295 27.5921 131.512 28.0325 131.947 28.375L131.943 28.3713Z" fill="#141C36"/>
<path d="M146.824 30.7842C145.531 29.9748 144.617 28.8644 144.081 27.4528L147.086 25.8944C147.54 26.8091 148.143 27.5205 148.9 28.0287C149.653 28.5369 150.485 28.7929 151.396 28.7929C152.179 28.7929 152.794 28.631 153.24 28.311C153.686 27.9911 153.907 27.5469 153.907 26.986C153.907 26.508 153.719 26.1089 153.348 25.789C152.977 25.469 152.49 25.2545 151.891 25.1491L149.133 24.6823C147.709 24.3096 146.607 23.6697 145.831 22.7663C145.055 21.8629 144.669 20.8013 144.669 19.5742C144.669 18.5578 144.939 17.6506 145.475 16.8489C146.011 16.0508 146.76 15.4335 147.724 14.9968C148.683 14.5602 149.773 14.3419 150.995 14.3419C152.546 14.3419 153.911 14.7108 155.087 15.4486C156.264 16.1863 157.122 17.2065 157.658 18.5164L154.653 20.0748C154.323 19.3483 153.817 18.7686 153.135 18.332C152.453 17.8953 151.7 17.677 150.871 17.677C150.189 17.677 149.646 17.8313 149.245 18.1438C148.84 18.4562 148.642 18.859 148.642 19.3596C148.642 20.2743 149.324 20.8841 150.688 21.1966L153.386 21.6935C154.81 22.0887 155.915 22.7324 156.702 23.6245C157.486 24.5167 157.879 25.5744 157.879 26.8016C157.879 27.8179 157.606 28.7213 157.058 29.5118C156.511 30.3023 155.739 30.9121 154.75 31.3488C153.757 31.7855 152.61 32.0038 151.31 32.0038C149.616 32.0038 148.121 31.601 146.832 30.7879L146.824 30.7842Z" fill="#141C36"/>
<path d="M160.394 9.68923C160.742 9.33915 161.226 9.16223 161.836 9.16223C162.447 9.16223 162.957 9.33915 163.309 9.68923C163.658 10.0431 163.834 10.5324 163.834 11.1686C163.834 11.8047 163.661 12.2677 163.32 12.6178C162.979 12.9717 162.485 13.1448 161.836 13.1448C161.222 13.1448 160.742 12.9679 160.394 12.6178C160.041 12.2677 159.869 11.7822 159.869 11.1686C159.869 10.555 160.045 10.0431 160.394 9.68923ZM159.82 15.0608H163.883V32H159.82V15.0608Z" fill="#141C36"/>
<path d="M18.2013 18.283V22.8566H13.6556V31.9962H0V18.283L4.55313 13.717V27.4302H9.1025V18.283H18.2013Z" fill="#1342F0"/>
<path d="M27.3075 0V13.717H22.7544V4.57358H4.55312V9.13963H18.2013L22.7544 13.717V18.283H18.2013V13.717H0V9.1434H0.00374743V9.13963H0V0H27.3075Z" fill="#1342F0"/>
</g>
<defs>
<clipPath id="clip0_453_355">
<rect width="163.879" height="32" fill="white"/>
</clipPath>
</defs>
</svg>
